# xmcd CD database file
#
# Track frame offsets:
#	150
#	14897
#	29555
#	45579
#	57645
#	70107
#	87324
#	105100
#	118013
#	132855
#	145628
#	159126
#	172082
#	185047
#
# Disc length: 2753 seconds
#
# Revision: 0
# Processed by: cddbd v1.5.1PL2 Copyright (c) Steve Scherf et al.
# Submitted via: CDex 1.51
#
DISCID=c10abf0e
DTITLE=Various Artist - Mr Music Country 11-05
DYEAR=2005
DGENRE=Country
TTITLE0=Mark Chesnutt - Sombody Save The Honky Tonks
TTITLE1=Billy Boggs - The Boys Are On The Town
TTITLE2=Leona Williams - Form Dallas To Nashwille With Love
TTITLE3=Ron Wayne Atwood - If I Ever Fall In Love With A Honky Tonk Girl
TTITLE4=Miss Leslie - I'll Be Gone Tonight
TTITLE5=Aron Watson with Willie Nelson - The Honky Tonk Kid
TTITLE6=Cody Bryant - You Got Your Bed Of Roses
TTITLE7=Heidi Hauge - Stranger
TTITLE8=Butch Martin - Whittler's Corner
TTITLE9=Roy Rivers with Dolly Parton - Thank God I'm A Country Boy
TTITLE10=Sanger D."Whitey" Shafer - That's The Way Love Goes
TTITLE11=Levi Mullen - Where's The Country In Our Country Music
TTITLE12=Joe Slick - Kawliga
TTITLE13=Doo-Vy and Cricket - The Friend She Needed
EXTD=YEAR: 2005
EXTT0=
EXTT1=
EXTT2=
EXTT3=
EXTT4=
EXTT5=
EXTT6=
EXTT7=
EXTT8=
EXTT9=
EXTT10=
EXTT11=
EXTT12=
EXTT13=
PLAYORDER=
